<svg width="259" height="56" viewBox="0 0 259 56" fill="none" xmlns="http://www.w3.org/2000/svg">
<g clip-path="url(#clip0_44_9380)">
<path d="M40.4378 16.2317V43.2699L29.7808 49.8639L19.1238 43.2699V16.2317L0 4.39746V10.5337L13.8692 19.1157V46.1595L29.785 56.0001L45.7008 46.1595V19.1171L59.57 10.5351V4.39746L40.4378 16.2317Z" fill="white"/>
<path d="M32.6943 11.8916V12.103V39.263L29.7848 41.2034L26.8752 39.263V11.8916L7.75146 0V6.1712L21.6206 14.9912V42.168L29.7848 47.3802L37.9489 42.168V14.9968L51.8181 6.1768V0L32.6943 11.8916Z" fill="white"/>
<path d="M77.4848 15.3104V17.8948H68.928V24.045H75.9871V26.5104H68.928V35.1344H65.7031V15.3104H77.4848ZM83.584 14.3556V35.1344H80.3648V14.35L83.584 14.3556ZM89.3158 19.6644L93.9749 31.0338L98.2949 19.6588H101.879L92.4758 42.4928H88.8921L92.2534 34.7704L85.701 19.6588L89.3158 19.6644ZM103.548 15.1704C103.541 14.9189 103.587 14.6687 103.684 14.4363C103.781 14.2039 103.927 13.9946 104.111 13.8222C104.519 13.4547 105.057 13.2629 105.607 13.2888C106.161 13.2647 106.703 13.456 107.118 13.8222C107.306 13.9924 107.455 14.2009 107.555 14.4336C107.655 14.6662 107.703 14.9175 107.696 15.1704C107.704 15.4194 107.657 15.667 107.556 15.8953C107.456 16.1236 107.307 16.327 107.118 16.4906C106.695 16.8381 106.157 17.0162 105.609 16.9904C105.064 17.0167 104.529 16.8361 104.113 16.485C103.928 16.3201 103.781 16.117 103.684 15.8899C103.586 15.6628 103.54 15.4172 103.548 15.1704ZM107.219 19.6644V35.1344H104V19.6588L107.219 19.6644ZM119.813 19.411C120.621 19.3764 121.426 19.5139 122.176 19.8142C122.926 20.1146 123.603 20.5709 124.161 21.1526C125.331 22.5354 125.918 24.3148 125.8 26.1184V35.1344H122.58V26.4544C122.657 25.2833 122.272 24.1286 121.508 23.2344C121.127 22.8487 120.669 22.5479 120.163 22.3519C119.656 22.1559 119.114 22.0692 118.571 22.0976C118.001 22.0726 117.431 22.1686 116.9 22.3794C116.369 22.5901 115.89 22.9107 115.493 23.3198C114.657 24.3201 114.242 25.6033 114.335 26.901V35.1344H111.115V19.6588H114.335V23.0566C114.707 21.9497 115.443 20.9998 116.425 20.3602C117.434 19.715 118.613 19.3827 119.813 19.4054V19.411ZM135.796 19.467C137.081 19.4295 138.345 19.7928 139.411 20.5058C140.39 21.1784 141.129 22.142 141.523 23.2582V19.6588H144.742V35.3024C144.768 36.6336 144.462 37.9504 143.852 39.1356C143.271 40.2371 142.384 41.149 141.296 41.762C140.089 42.4219 138.727 42.7513 137.35 42.7168C135.462 42.8072 133.598 42.265 132.056 41.1768C130.71 40.1513 129.804 38.6558 129.523 36.9922H132.714C132.947 37.8669 133.488 38.6295 134.238 39.1412C135.096 39.6858 136.101 39.9555 137.118 39.914C137.698 39.9345 138.275 39.8408 138.818 39.6383C139.361 39.4357 139.858 39.1283 140.281 38.7338C140.716 38.2799 141.051 37.7409 141.265 37.151C141.479 36.5612 141.567 35.9336 141.524 35.308V31.5392C141.13 32.6555 140.391 33.619 139.413 34.2916C138.347 35.0038 137.085 35.367 135.802 35.3304C134.527 35.3519 133.271 35.0214 132.173 34.3756C131.088 33.7185 130.218 32.7624 129.669 31.6232C129.039 30.2994 128.729 28.847 128.764 27.3826C128.73 25.9275 129.039 24.4846 129.668 23.17C130.215 22.0316 131.083 21.0755 132.166 20.4176C133.266 19.7701 134.524 19.439 135.802 19.4614L135.796 19.467ZM136.782 22.2754C136.145 22.2469 135.51 22.3537 134.919 22.5886C134.327 22.8235 133.793 23.1811 133.351 23.6376C132.448 24.6732 131.987 26.0183 132.066 27.3868C131.99 28.7538 132.452 30.0967 133.354 31.1304C133.796 31.5869 134.33 31.9446 134.922 32.1795C135.513 32.4144 136.148 32.5211 136.785 32.4926C137.637 32.5062 138.476 32.2879 139.213 31.8612C139.931 31.434 140.516 30.8165 140.902 30.0776C141.331 29.2443 141.545 28.3174 141.523 27.3812C141.542 26.4498 141.328 25.5282 140.902 24.6988C140.519 23.9541 139.934 23.3313 139.213 22.9012C138.477 22.4755 137.638 22.2577 136.787 22.2712L136.782 22.2754ZM172.337 25.1916C172.38 27.0133 171.957 28.816 171.108 30.4304C170.289 31.9187 169.04 33.1275 167.521 33.8996C165.774 34.7632 163.841 35.1876 161.891 35.1358H155.227V15.3104H161.891C163.839 15.2588 165.771 15.6782 167.521 16.5326C169.038 17.2937 170.288 18.4926 171.108 19.9724C171.957 21.5797 172.38 23.3762 172.337 25.1916ZM161.639 32.2406C162.633 32.3063 163.631 32.1764 164.575 31.8584C165.519 31.5403 166.391 31.0403 167.141 30.387C167.804 29.6996 168.317 28.8832 168.647 27.989C168.978 27.0949 169.119 26.1425 169.061 25.1916C169.119 24.2407 168.978 23.2883 168.647 22.3942C168.317 21.5001 167.804 20.6836 167.141 19.9962C166.391 19.3424 165.518 18.8421 164.573 18.524C163.628 18.206 162.63 18.0764 161.634 18.1426H158.443V32.2406H161.639ZM182.701 19.4614C184.115 19.4395 185.512 19.7676 186.767 20.4162C187.958 21.04 188.94 21.9968 189.591 23.1686C190.292 24.4611 190.642 25.913 190.607 27.3812C190.644 28.8591 190.293 30.3211 189.59 31.6232C188.939 32.7951 187.957 33.7519 186.766 34.3756C185.511 35.0242 184.113 35.3523 182.699 35.3304C181.29 35.3536 179.896 35.0253 178.647 34.3756C177.457 33.7439 176.477 32.7831 175.825 31.6092C175.115 30.3142 174.759 28.857 174.793 27.3826C174.758 25.9127 175.113 24.4597 175.823 23.17C176.479 22.0019 177.459 21.0464 178.647 20.4176C179.897 19.7672 181.29 19.4384 182.701 19.4614ZM182.701 22.2418C181.903 22.2337 181.116 22.4264 180.413 22.8018C179.694 23.2006 179.109 23.8028 178.734 24.5322C178.286 25.4146 178.068 26.3946 178.099 27.3826C178.065 28.3754 178.283 29.3607 178.734 30.247C179.113 30.9696 179.697 31.5655 180.413 31.9606C181.116 32.3361 181.903 32.5287 182.701 32.5206C183.498 32.5287 184.285 32.3361 184.988 31.9606C185.705 31.5655 186.289 30.9696 186.667 30.247C187.118 29.3607 187.337 28.3754 187.302 27.3826C187.333 26.3946 187.115 25.4146 186.667 24.5322C186.291 23.8036 185.706 23.2024 184.987 22.8046C184.284 22.4289 183.498 22.2358 182.701 22.2432V22.2418ZM202.407 19.4054C203.215 19.3708 204.021 19.5083 204.771 19.8086C205.521 20.109 206.197 20.5653 206.755 21.147C207.927 22.5312 208.514 24.3129 208.394 26.1184V35.1344H205.175V26.4544C205.251 25.2833 204.866 24.1286 204.102 23.2344C203.722 22.8487 203.263 22.5479 202.757 22.3519C202.251 22.1559 201.708 22.0692 201.166 22.0976C200.595 22.0726 200.025 22.1686 199.494 22.3794C198.964 22.5901 198.484 22.9107 198.087 23.3198C197.251 24.3201 196.836 25.6033 196.929 26.901V35.1344H193.712V19.6588H196.932V23.0566C197.304 21.9497 198.04 20.9998 199.022 20.3602C200.031 19.715 201.211 19.3827 202.41 19.4054H202.407ZM220.962 35.1344L215.371 28.2534V35.1344H212.152V14.35H215.371V26.2584L220.906 19.6588H224.774L217.997 27.3588L224.943 35.1386L220.962 35.1344ZM241.492 26.6504C241.498 27.1116 241.46 27.5724 241.38 28.0266H229.408C229.381 28.6748 229.484 29.3217 229.712 29.9295C229.94 30.5373 230.288 31.0937 230.735 31.5658C231.57 32.3364 232.675 32.7501 233.814 32.718C234.787 32.7484 235.744 32.4623 236.539 31.9032C237.264 31.3898 237.756 30.6125 237.909 29.7402H241.353C241.16 30.7942 240.714 31.7864 240.054 32.6326C239.373 33.4919 238.49 34.1717 237.483 34.6122C236.372 35.1017 235.168 35.3462 233.953 35.329C232.561 35.3568 231.185 35.028 229.957 34.3742C228.8 33.7388 227.853 32.7832 227.232 31.6232C226.548 30.3154 226.209 28.8563 226.247 27.3826C226.211 25.9181 226.55 24.4685 227.232 23.17C227.853 22.0095 228.8 21.0534 229.957 20.4176C231.185 19.7639 232.561 19.4351 233.953 19.4628C235.344 19.4306 236.72 19.7545 237.949 20.4036C239.055 20.9979 239.967 21.8947 240.576 22.988C241.194 24.1099 241.509 25.3715 241.492 26.6504ZM238.245 26.5664C238.311 25.6872 238.13 24.807 237.723 24.024C237.366 23.3685 236.814 22.8389 236.142 22.5078C235.461 22.1772 234.711 22.0089 233.953 22.0164C232.789 21.9808 231.656 22.3936 230.79 23.1686C230.343 23.614 229.99 24.1443 229.752 24.7279C229.514 25.3116 229.397 25.9368 229.407 26.5664H238.245ZM246.44 19.6588L251.099 31.0338L255.419 19.6588H259.006L249.603 42.4928H246.016L249.371 34.7704L242.82 19.6588H246.44Z" fill="white"/>
</g>
<defs>
<clipPath id="clip0_44_9380">
<rect width="259" height="56" fill="white"/>
</clipPath>
</defs>
</svg>
